<svg xmlns="http://www.w3.org/2000/svg" xmlns:xlink="http://www.w3.org/1999/xlink" width="578" zoomAndPan="magnify" viewBox="431.27 116.39 577.23 577.23" height="578" preserveAspectRatio="xMidYMid meet" version="1.0"><defs><clipPath id="17b1373e00"><path d="M 0.269531 0.386719 L 578 0.386719 L 578 577.613281 L 0.269531 577.613281 Z M 0.269531 0.386719 " clip-rule="nonzero"/></clipPath><clipPath id="5c489a193f"><path d="M 49.769531 0.386719 L 528.230469 0.386719 C 555.570312 0.386719 577.730469 22.546875 577.730469 49.886719 L 577.730469 528.113281 C 577.730469 555.453125 555.570312 577.613281 528.230469 577.613281 L 49.769531 577.613281 C 22.429688 577.613281 0.269531 555.453125 0.269531 528.113281 L 0.269531 49.886719 C 0.269531 22.546875 22.429688 0.386719 49.769531 0.386719 Z M 49.769531 0.386719 " clip-rule="nonzero"/></clipPath><clipPath id="0b69b930c0"><path d="M 0.269531 0.386719 L 577.960938 0.386719 L 577.960938 577.613281 L 0.269531 577.613281 Z M 0.269531 0.386719 " clip-rule="nonzero"/></clipPath><clipPath id="00e2f9e105"><path d="M 49.769531 0.386719 L 528.230469 0.386719 C 555.570312 0.386719 577.730469 22.546875 577.730469 49.886719 L 577.730469 528.113281 C 577.730469 555.453125 555.570312 577.613281 528.230469 577.613281 L 49.769531 577.613281 C 22.429688 577.613281 0.269531 555.453125 0.269531 528.113281 L 0.269531 49.886719 C 0.269531 22.546875 22.429688 0.386719 49.769531 0.386719 Z M 49.769531 0.386719 " clip-rule="nonzero"/></clipPath><clipPath id="4636c9ef51"><rect x="0" width="578" y="0" height="578"/></clipPath><clipPath id="8b45f45044"><path d="M 42 77 L 530 77 L 530 450 L 42 450 Z M 42 77 " clip-rule="nonzero"/></clipPath><clipPath id="5dbe5e9e49"><path d="M 6.472656 80.867188 L 6.472656 497.132812 C 6.472656 510.261719 11.6875 522.851562 20.972656 532.132812 C 30.253906 541.417969 42.84375 546.632812 55.972656 546.632812 L 499.3125 546.632812 C 512.441406 546.632812 525.03125 541.417969 534.3125 532.132812 C 543.597656 522.851562 548.8125 510.261719 548.8125 497.132812 L 548.8125 80.867188 C 548.8125 67.738281 543.597656 55.148438 534.3125 45.867188 C 525.03125 36.582031 512.441406 31.367188 499.3125 31.367188 L 55.972656 31.367188 C 42.84375 31.367188 30.253906 36.582031 20.972656 45.867188 C 11.6875 55.148438 6.472656 67.738281 6.472656 80.867188 Z M 6.472656 80.867188 " clip-rule="nonzero"/></clipPath><clipPath id="6cf3b6b168"><path d="M 6.472656 31.367188 L 548.628906 31.367188 L 548.628906 502 L 6.472656 502 Z M 6.472656 31.367188 " clip-rule="nonzero"/></clipPath><clipPath id="228ae5f047"><path d="M 6.472656 80.867188 L 6.472656 497.132812 C 6.472656 510.261719 11.6875 522.851562 20.972656 532.132812 C 30.253906 541.417969 42.84375 546.632812 55.972656 546.632812 L 499.3125 546.632812 C 512.441406 546.632812 525.03125 541.417969 534.3125 532.132812 C 543.597656 522.851562 548.8125 510.261719 548.8125 497.132812 L 548.8125 80.867188 C 548.8125 67.738281 543.597656 55.148438 534.3125 45.867188 C 525.03125 36.582031 512.441406 31.367188 499.3125 31.367188 L 55.972656 31.367188 C 42.84375 31.367188 30.253906 36.582031 20.972656 45.867188 C 11.6875 55.148438 6.472656 67.738281 6.472656 80.867188 Z M 6.472656 80.867188 " clip-rule="nonzero"/></clipPath><clipPath id="b3d9ab8ff2"><path d="M 408 466 L 455 466 L 455 514 L 408 514 Z M 408 466 " clip-rule="nonzero"/></clipPath><clipPath id="b14e5f46fe"><path d="M 6.472656 80.867188 L 6.472656 497.132812 C 6.472656 510.261719 11.6875 522.851562 20.972656 532.132812 C 30.253906 541.417969 42.84375 546.632812 55.972656 546.632812 L 499.3125 546.632812 C 512.441406 546.632812 525.03125 541.417969 534.3125 532.132812 C 543.597656 522.851562 548.8125 510.261719 548.8125 497.132812 L 548.8125 80.867188 C 548.8125 67.738281 543.597656 55.148438 534.3125 45.867188 C 525.03125 36.582031 512.441406 31.367188 499.3125 31.367188 L 55.972656 31.367188 C 42.84375 31.367188 30.253906 36.582031 20.972656 45.867188 C 11.6875 55.148438 6.472656 67.738281 6.472656 80.867188 Z M 6.472656 80.867188 " clip-rule="nonzero"/></clipPath><clipPath id="b17febdeef"><path d="M 356 413 L 508 413 L 508 546.703125 L 356 546.703125 Z M 356 413 " clip-rule="nonzero"/></clipPath><clipPath id="953c12a066"><path d="M 6.472656 80.867188 L 6.472656 497.132812 C 6.472656 510.261719 11.6875 522.851562 20.972656 532.132812 C 30.253906 541.417969 42.84375 546.632812 55.972656 546.632812 L 499.3125 546.632812 C 512.441406 546.632812 525.03125 541.417969 534.3125 532.132812 C 543.597656 522.851562 548.8125 510.261719 548.8125 497.132812 L 548.8125 80.867188 C 548.8125 67.738281 543.597656 55.148438 534.3125 45.867188 C 525.03125 36.582031 512.441406 31.367188 499.3125 31.367188 L 55.972656 31.367188 C 42.84375 31.367188 30.253906 36.582031 20.972656 45.867188 C 11.6875 55.148438 6.472656 67.738281 6.472656 80.867188 Z M 6.472656 80.867188 " clip-rule="nonzero"/></clipPath><clipPath id="287d04e196"><path d="M 474.054688 363.222656 L 502.878906 363.222656 L 502.878906 392.050781 L 474.054688 392.050781 Z M 474.054688 363.222656 " clip-rule="nonzero"/></clipPath><clipPath id="bdac358c3c"><path d="M 488.46875 363.222656 C 480.507812 363.222656 474.054688 369.675781 474.054688 377.636719 C 474.054688 385.597656 480.507812 392.050781 488.46875 392.050781 C 496.425781 392.050781 502.878906 385.597656 502.878906 377.636719 C 502.878906 369.675781 496.425781 363.222656 488.46875 363.222656 Z M 488.46875 363.222656 " clip-rule="nonzero"/></clipPath><clipPath id="4959029200"><path d="M 0.0546875 0.222656 L 28.878906 0.222656 L 28.878906 29.050781 L 0.0546875 29.050781 Z M 0.0546875 0.222656 " clip-rule="nonzero"/></clipPath><clipPath id="fff9f2d7b4"><path d="M 14.46875 0.222656 C 6.507812 0.222656 0.0546875 6.675781 0.0546875 14.636719 C 0.0546875 22.597656 6.507812 29.050781 14.46875 29.050781 C 22.425781 29.050781 28.878906 22.597656 28.878906 14.636719 C 28.878906 6.675781 22.425781 0.222656 14.46875 0.222656 Z M 14.46875 0.222656 " clip-rule="nonzero"/></clipPath><clipPath id="27b6aa599c"><rect x="0" width="29" y="0" height="30"/></clipPath><clipPath id="5860f829a0"><path d="M 496.53125 298.503906 L 525.355469 298.503906 L 525.355469 327.328125 L 496.53125 327.328125 Z M 496.53125 298.503906 " clip-rule="nonzero"/></clipPath><clipPath id="c43aeb25d9"><path d="M 510.941406 298.503906 C 502.980469 298.503906 496.53125 304.957031 496.53125 312.917969 C 496.53125 320.875 502.980469 327.328125 510.941406 327.328125 C 518.902344 327.328125 525.355469 320.875 525.355469 312.917969 C 525.355469 304.957031 518.902344 298.503906 510.941406 298.503906 Z M 510.941406 298.503906 " clip-rule="nonzero"/></clipPath><clipPath id="35ee7eba49"><path d="M 0.53125 0.503906 L 29.355469 0.503906 L 29.355469 29.328125 L 0.53125 29.328125 Z M 0.53125 0.503906 " clip-rule="nonzero"/></clipPath><clipPath id="4092a8c882"><path d="M 14.941406 0.503906 C 6.980469 0.503906 0.53125 6.957031 0.53125 14.917969 C 0.53125 22.875 6.980469 29.328125 14.941406 29.328125 C 22.902344 29.328125 29.355469 22.875 29.355469 14.917969 C 29.355469 6.957031 22.902344 0.503906 14.941406 0.503906 Z M 14.941406 0.503906 " clip-rule="nonzero"/></clipPath><clipPath id="27e8b11a81"><rect x="0" width="30" y="0" height="30"/></clipPath><clipPath id="1743662b78"><path d="M 397.472656 419.800781 L 426.300781 419.800781 L 426.300781 448.625 L 397.472656 448.625 Z M 397.472656 419.800781 " clip-rule="nonzero"/></clipPath><clipPath id="435b447b4a"><path d="M 411.886719 419.800781 C 403.925781 419.800781 397.472656 426.253906 397.472656 434.214844 C 397.472656 442.171875 403.925781 448.625 411.886719 448.625 C 419.847656 448.625 426.300781 442.171875 426.300781 434.214844 C 426.300781 426.253906 419.847656 419.800781 411.886719 419.800781 Z M 411.886719 419.800781 " clip-rule="nonzero"/></clipPath><clipPath id="9363a6ba13"><path d="M 0.472656 0.800781 L 29.300781 0.800781 L 29.300781 29.625 L 0.472656 29.625 Z M 0.472656 0.800781 " clip-rule="nonzero"/></clipPath><clipPath id="7206aadd9a"><path d="M 14.886719 0.800781 C 6.925781 0.800781 0.472656 7.253906 0.472656 15.214844 C 0.472656 23.171875 6.925781 29.625 14.886719 29.625 C 22.847656 29.625 29.300781 23.171875 29.300781 15.214844 C 29.300781 7.253906 22.847656 0.800781 14.886719 0.800781 Z M 14.886719 0.800781 " clip-rule="nonzero"/></clipPath><clipPath id="4847055245"><rect x="0" width="30" y="0" height="30"/></clipPath><clipPath id="5318b4a189"><path d="M 350.855469 375.136719 L 379.683594 375.136719 L 379.683594 403.964844 L 350.855469 403.964844 Z M 350.855469 375.136719 " clip-rule="nonzero"/></clipPath><clipPath id="0f061c3dae"><path d="M 365.269531 375.136719 C 357.308594 375.136719 350.855469 381.589844 350.855469 389.550781 C 350.855469 397.511719 357.308594 403.964844 365.269531 403.964844 C 373.230469 403.964844 379.683594 397.511719 379.683594 389.550781 C 379.683594 381.589844 373.230469 375.136719 365.269531 375.136719 Z M 365.269531 375.136719 " clip-rule="nonzero"/></clipPath><clipPath id="a312fe7aef"><path d="M 0.855469 0.136719 L 29.683594 0.136719 L 29.683594 28.964844 L 0.855469 28.964844 Z M 0.855469 0.136719 " clip-rule="nonzero"/></clipPath><clipPath id="7e384648e2"><path d="M 15.269531 0.136719 C 7.308594 0.136719 0.855469 6.589844 0.855469 14.550781 C 0.855469 22.511719 7.308594 28.964844 15.269531 28.964844 C 23.230469 28.964844 29.683594 22.511719 29.683594 14.550781 C 29.683594 6.589844 23.230469 0.136719 15.269531 0.136719 Z M 15.269531 0.136719 " clip-rule="nonzero"/></clipPath><clipPath id="f8a44416a2"><rect x="0" width="30" y="0" height="29"/></clipPath><clipPath id="c56b7ce483"><path d="M 437.136719 494.875 L 453.777344 494.875 L 453.777344 511.515625 L 437.136719 511.515625 Z M 437.136719 494.875 " clip-rule="nonzero"/></clipPath><clipPath id="cf0273a955"><path d="M 445.457031 494.875 C 440.863281 494.875 437.136719 498.601562 437.136719 503.195312 C 437.136719 507.792969 440.863281 511.515625 445.457031 511.515625 C 450.050781 511.515625 453.777344 507.792969 453.777344 503.195312 C 453.777344 498.601562 450.050781 494.875 445.457031 494.875 Z M 445.457031 494.875 " clip-rule="nonzero"/></clipPath><clipPath id="ea89eb08a6"><path d="M 0.136719 0.875 L 16.777344 0.875 L 16.777344 17.515625 L 0.136719 17.515625 Z M 0.136719 0.875 " clip-rule="nonzero"/></clipPath><clipPath id="0fe801f11e"><path d="M 8.457031 0.875 C 3.863281 0.875 0.136719 4.601562 0.136719 9.195312 C 0.136719 13.792969 3.863281 17.515625 8.457031 17.515625 C 13.050781 17.515625 16.777344 13.792969 16.777344 9.195312 C 16.777344 4.601562 13.050781 0.875 8.457031 0.875 Z M 8.457031 0.875 " clip-rule="nonzero"/></clipPath><clipPath id="cdbf82b09c"><rect x="0" width="17" y="0" height="18"/></clipPath><clipPath id="d5c4b367f4"><path d="M 437.136719 181.042969 L 453.777344 181.042969 L 453.777344 197.683594 L 437.136719 197.683594 Z M 437.136719 181.042969 " clip-rule="nonzero"/></clipPath><clipPath id="2f4a1b6ad2"><path d="M 445.457031 181.042969 C 440.863281 181.042969 437.136719 184.769531 437.136719 189.363281 C 437.136719 193.960938 440.863281 197.683594 445.457031 197.683594 C 450.050781 197.683594 453.777344 193.960938 453.777344 189.363281 C 453.777344 184.769531 450.050781 181.042969 445.457031 181.042969 Z M 445.457031 181.042969 " clip-rule="nonzero"/></clipPath><clipPath id="7a6179cd53"><path d="M 0.136719 0.0429688 L 16.777344 0.0429688 L 16.777344 16.683594 L 0.136719 16.683594 Z M 0.136719 0.0429688 " clip-rule="nonzero"/></clipPath><clipPath id="afc9482ed5"><path d="M 8.457031 0.0429688 C 3.863281 0.0429688 0.136719 3.769531 0.136719 8.363281 C 0.136719 12.960938 3.863281 16.683594 8.457031 16.683594 C 13.050781 16.683594 16.777344 12.960938 16.777344 8.363281 C 16.777344 3.769531 13.050781 0.0429688 8.457031 0.0429688 Z M 8.457031 0.0429688 " clip-rule="nonzero"/></clipPath><clipPath id="af9a2cf3a5"><rect x="0" width="17" y="0" height="17"/></clipPath><clipPath id="5d9b0b4734"><path d="M 279.289062 98.328125 L 295.929688 98.328125 L 295.929688 114.96875 L 279.289062 114.96875 Z M 279.289062 98.328125 " clip-rule="nonzero"/></clipPath><clipPath id="523ea1e330"><path d="M 287.609375 98.328125 C 283.015625 98.328125 279.289062 102.050781 279.289062 106.648438 C 279.289062 111.242188 283.015625 114.96875 287.609375 114.96875 C 292.207031 114.96875 295.929688 111.242188 295.929688 106.648438 C 295.929688 102.050781 292.207031 98.328125 287.609375 98.328125 Z M 287.609375 98.328125 " clip-rule="nonzero"/></clipPath><clipPath id="41078cc0c2"><path d="M 0.289062 0.328125 L 16.929688 0.328125 L 16.929688 16.96875 L 0.289062 16.96875 Z M 0.289062 0.328125 " clip-rule="nonzero"/></clipPath><clipPath id="9e60db1c8a"><path d="M 8.609375 0.328125 C 4.015625 0.328125 0.289062 4.050781 0.289062 8.648438 C 0.289062 13.242188 4.015625 16.96875 8.609375 16.96875 C 13.207031 16.96875 16.929688 13.242188 16.929688 8.648438 C 16.929688 4.050781 13.207031 0.328125 8.609375 0.328125 Z M 8.609375 0.328125 " clip-rule="nonzero"/></clipPath><clipPath id="5d4c41fd7d"><rect x="0" width="17" y="0" height="17"/></clipPath><clipPath id="b464277cf2"><path d="M 279.539062 229.957031 L 296.179688 229.957031 L 296.179688 246.597656 L 279.539062 246.597656 Z M 279.539062 229.957031 " clip-rule="nonzero"/></clipPath><clipPath id="d1bb777e8c"><path d="M 287.859375 229.957031 C 283.261719 229.957031 279.539062 233.683594 279.539062 238.277344 C 279.539062 242.875 283.261719 246.597656 287.859375 246.597656 C 292.453125 246.597656 296.179688 242.875 296.179688 238.277344 C 296.179688 233.683594 292.453125 229.957031 287.859375 229.957031 Z M 287.859375 229.957031 " clip-rule="nonzero"/></clipPath><clipPath id="1c28b513d1"><path d="M 0.539062 0.957031 L 17.179688 0.957031 L 17.179688 17.597656 L 0.539062 17.597656 Z M 0.539062 0.957031 " clip-rule="nonzero"/></clipPath><clipPath id="6fd39eb544"><path d="M 8.859375 0.957031 C 4.261719 0.957031 0.539062 4.683594 0.539062 9.277344 C 0.539062 13.875 4.261719 17.597656 8.859375 17.597656 C 13.453125 17.597656 17.179688 13.875 17.179688 9.277344 C 17.179688 4.683594 13.453125 0.957031 8.859375 0.957031 Z M 8.859375 0.957031 " clip-rule="nonzero"/></clipPath><clipPath id="b667f67112"><rect x="0" width="18" y="0" height="18"/></clipPath><clipPath id="ff059b2305"><path d="M 47.648438 238.277344 L 64.289062 238.277344 L 64.289062 254.921875 L 47.648438 254.921875 Z M 47.648438 238.277344 " clip-rule="nonzero"/></clipPath><clipPath id="2832265d26"><path d="M 55.96875 238.277344 C 51.371094 238.277344 47.648438 242.003906 47.648438 246.597656 C 47.648438 251.195312 51.371094 254.921875 55.96875 254.921875 C 60.5625 254.921875 64.289062 251.195312 64.289062 246.597656 C 64.289062 242.003906 60.5625 238.277344 55.96875 238.277344 Z M 55.96875 238.277344 " clip-rule="nonzero"/></clipPath><clipPath id="c7641858e1"><path d="M 0.648438 0.277344 L 17.289062 0.277344 L 17.289062 16.921875 L 0.648438 16.921875 Z M 0.648438 0.277344 " clip-rule="nonzero"/></clipPath><clipPath id="c418ba6434"><path d="M 8.96875 0.277344 C 4.371094 0.277344 0.648438 4.003906 0.648438 8.597656 C 0.648438 13.195312 4.371094 16.921875 8.96875 16.921875 C 13.5625 16.921875 17.289062 13.195312 17.289062 8.597656 C 17.289062 4.003906 13.5625 0.277344 8.96875 0.277344 Z M 8.96875 0.277344 " clip-rule="nonzero"/></clipPath><clipPath id="437bfcf4d6"><rect x="0" width="18" y="0" height="17"/></clipPath><clipPath id="20312efdb7"><path d="M 157.855469 164 L 174.5 164 L 174.5 180.640625 L 157.855469 180.640625 Z M 157.855469 164 " clip-rule="nonzero"/></clipPath><clipPath id="2e4f50c34c"><path d="M 166.179688 164 C 161.582031 164 157.855469 167.722656 157.855469 172.320312 C 157.855469 176.914062 161.582031 180.640625 166.179688 180.640625 C 170.773438 180.640625 174.5 176.914062 174.5 172.320312 C 174.5 167.722656 170.773438 164 166.179688 164 Z M 166.179688 164 " clip-rule="nonzero"/></clipPath><clipPath id="eb8a0d7015"><path d="M 0.855469 0 L 17.5 0 L 17.5 16.640625 L 0.855469 16.640625 Z M 0.855469 0 " clip-rule="nonzero"/></clipPath><clipPath id="04cc3643cb"><path d="M 9.179688 0 C 4.582031 0 0.855469 3.722656 0.855469 8.320312 C 0.855469 12.914062 4.582031 16.640625 9.179688 16.640625 C 13.773438 16.640625 17.5 12.914062 17.5 8.320312 C 17.5 3.722656 13.773438 0 9.179688 0 Z M 9.179688 0 " clip-rule="nonzero"/></clipPath><clipPath id="cf025d5643"><rect x="0" width="18" y="0" height="17"/></clipPath><clipPath id="8139e9d44b"><path d="M 392.53125 91.398438 L 409.171875 91.398438 L 409.171875 108.042969 L 392.53125 108.042969 Z M 392.53125 91.398438 " clip-rule="nonzero"/></clipPath><clipPath id="913f3027f6"><path d="M 400.851562 91.398438 C 396.253906 91.398438 392.53125 95.125 392.53125 99.71875 C 392.53125 104.316406 396.253906 108.042969 400.851562 108.042969 C 405.445312 108.042969 409.171875 104.316406 409.171875 99.71875 C 409.171875 95.125 405.445312 91.398438 400.851562 91.398438 Z M 400.851562 91.398438 " clip-rule="nonzero"/></clipPath><clipPath id="35753303b2"><path d="M 0.53125 0.398438 L 17.171875 0.398438 L 17.171875 17.042969 L 0.53125 17.042969 Z M 0.53125 0.398438 " clip-rule="nonzero"/></clipPath><clipPath id="c7ceb535b1"><path d="M 8.851562 0.398438 C 4.253906 0.398438 0.53125 4.125 0.53125 8.71875 C 0.53125 13.316406 4.253906 17.042969 8.851562 17.042969 C 13.445312 17.042969 17.171875 13.316406 17.171875 8.71875 C 17.171875 4.125 13.445312 0.398438 8.851562 0.398438 Z M 8.851562 0.398438 " clip-rule="nonzero"/></clipPath><clipPath id="a9480318b5"><rect x="0" width="18" y="0" height="18"/></clipPath><clipPath id="122d2142d6"><path d="M 79.503906 343.554688 L 108.03125 343.554688 L 108.03125 372.414062 L 79.503906 372.414062 Z M 79.503906 343.554688 " clip-rule="nonzero"/></clipPath><clipPath id="0d30ba20ba"><path d="M 93.765625 343.554688 C 85.890625 343.554688 79.503906 350.007812 79.503906 357.96875 C 79.503906 365.929688 85.890625 372.382812 93.765625 372.382812 C 101.644531 372.382812 108.03125 365.929688 108.03125 357.96875 C 108.03125 350.007812 101.644531 343.554688 93.765625 343.554688 Z M 93.765625 343.554688 " clip-rule="nonzero"/></clipPath><clipPath id="ea37f9573a"><path d="M 0.503906 0.554688 L 29.03125 0.554688 L 29.03125 29.398438 L 0.503906 29.398438 Z M 0.503906 0.554688 " clip-rule="nonzero"/></clipPath><clipPath id="75e3648239"><path d="M 14.765625 0.554688 C 6.890625 0.554688 0.503906 7.007812 0.503906 14.96875 C 0.503906 22.929688 6.890625 29.382812 14.765625 29.382812 C 22.644531 29.382812 29.03125 22.929688 29.03125 14.96875 C 29.03125 7.007812 22.644531 0.554688 14.765625 0.554688 Z M 14.765625 0.554688 " clip-rule="nonzero"/></clipPath><clipPath id="cb9e5add44"><rect x="0" width="30" y="0" height="30"/></clipPath><clipPath id="67c8cb39be"><rect x="0" width="580" y="0" height="578"/></clipPath></defs><g transform="matrix(1, 0, 0, 1, 431, 116)"><g clip-path="url(#67c8cb39be)"><g clip-path="url(#17b1373e00)"><g clip-path="url(#5c489a193f)"><g transform="matrix(1, 0, 0, 1, 0, 0.000000000000042633)"><g clip-path="url(#4636c9ef51)"><g clip-path="url(#0b69b930c0)"><g clip-path="url(#00e2f9e105)"><path fill="#d77655" d="M 0.269531 0.386719 L 577.496094 0.386719 L 577.496094 577.613281 L 0.269531 577.613281 Z M 0.269531 0.386719 " fill-opacity="1" fill-rule="nonzero"/></g></g></g></g></g></g><g clip-path="url(#8b45f45044)"><g clip-path="url(#5dbe5e9e49)"><path fill="#ffffff" d="M 401.242188 77.496094 L 448.617188 183.089844 L 529.671875 268.703125 L 513.6875 364.019531 L 472.589844 429.65625 L 431.496094 449.0625 L 372.703125 439.929688 L 333.320312 392.558594 L 339.027344 365.730469 L 317.335938 389.703125 L 289.9375 354.886719 L 246.558594 345.183594 L 106.144531 397.695312 L 74.75 380 L 82.171875 352.035156 L 42.785156 275.550781 L 55.914062 278.40625 L 47.921875 248.726562 L 83.882812 204.777344 L 138.679688 189.367188 L 206.03125 115.738281 L 234.570312 130.007812 L 254.550781 95.761719 L 325.898438 91.765625 L 315.054688 127.722656 L 381.265625 166.535156 Z M 401.242188 77.496094 " fill-opacity="1" fill-rule="nonzero"/></g></g><g clip-path="url(#6cf3b6b168)"><g clip-path="url(#228ae5f047)"><path stroke-linecap="butt" transform="matrix(3.488166, 0, 0, 3.487992, -75.938439, -16.678606)" fill="none" stroke-linejoin="miter" d="M 136.799849 26.999691 L 150.381483 57.273201 L 173.618531 81.818352 L 169.036073 109.145368 L 157.25405 127.96328 L 145.473147 133.527012 L 128.618168 130.908653 L 117.327763 117.327459 L 118.963875 109.635891 L 112.745305 116.508802 L 104.890623 106.52701 L 92.454603 103.745144 L 52.200197 118.800145 L 43.199901 113.726936 L 45.32763 105.709473 L 34.036105 83.781561 L 37.799947 84.600218 L 35.508718 76.091113 L 45.818128 63.490963 L 61.527492 59.072903 L 80.836079 37.963648 L 89.01776 42.054693 L 94.745832 32.236408 L 115.200033 31.090737 L 112.091308 41.399543 L 131.072896 52.527007 Z M 136.799849 26.999691 " stroke="#ffffff" stroke-width="2.665" stroke-opacity="1" stroke-miterlimit="4"/></g></g><g clip-path="url(#b3d9ab8ff2)"><g clip-path="url(#b14e5f46fe)"><path fill="#ffffff" d="M 414.941406 466.1875 L 434.347656 475.320312 L 454.898438 474.746094 L 446.335938 512.417969 L 430.925781 513.558594 L 416.652344 497.007812 L 408.664062 477.601562 Z M 414.941406 466.1875 " fill-opacity="1" fill-rule="nonzero"/></g></g><g clip-path="url(#b17febdeef)"><g clip-path="url(#953c12a066)"><path stroke-linecap="butt" transform="matrix(3.488166, 0, 0, 3.487992, -75.938439, -16.678606)" fill="none" stroke-linejoin="miter" d="M 140.72719 138.436714 L 146.290643 141.055072 L 152.182214 140.890445 L 149.727486 151.690893 L 145.309648 152.017908 L 141.217688 147.272834 L 138.927578 141.709102 Z M 140.72719 138.436714 " stroke="#ffffff" stroke-width="2.665" stroke-opacity="1" stroke-miterlimit="4"/></g></g><g clip-path="url(#287d04e196)"><g clip-path="url(#bdac358c3c)"><g transform="matrix(1, 0, 0, 1, 474, 363)"><g clip-path="url(#27b6aa599c)"><g clip-path="url(#4959029200)"><g clip-path="url(#fff9f2d7b4)"><path fill="#000000" d="M 0.0546875 0.222656 L 28.878906 0.222656 L 28.878906 29.050781 L 0.0546875 29.050781 Z M 0.0546875 0.222656 " fill-opacity="1" fill-rule="nonzero"/></g></g></g></g></g></g><g clip-path="url(#5860f829a0)"><g clip-path="url(#c43aeb25d9)"><g transform="matrix(1, 0, 0, 1, 496, 298)"><g clip-path="url(#27e8b11a81)"><g clip-path="url(#35ee7eba49)"><g clip-path="url(#4092a8c882)"><path fill="#000000" d="M 0.527344 0.503906 L 29.355469 0.503906 L 29.355469 29.328125 L 0.527344 29.328125 Z M 0.527344 0.503906 " fill-opacity="1" fill-rule="nonzero"/></g></g></g></g></g></g><g clip-path="url(#1743662b78)"><g clip-path="url(#435b447b4a)"><g transform="matrix(1, 0, 0, 1, 397, 419)"><g clip-path="url(#4847055245)"><g clip-path="url(#9363a6ba13)"><g clip-path="url(#7206aadd9a)"><path fill="#000000" d="M 0.472656 0.800781 L 29.300781 0.800781 L 29.300781 29.625 L 0.472656 29.625 Z M 0.472656 0.800781 " fill-opacity="1" fill-rule="nonzero"/></g></g></g></g></g></g><g clip-path="url(#5318b4a189)"><g clip-path="url(#0f061c3dae)"><g transform="matrix(1, 0, 0, 1, 350, 375)"><g clip-path="url(#f8a44416a2)"><g clip-path="url(#a312fe7aef)"><g clip-path="url(#7e384648e2)"><path fill="#000000" d="M 0.855469 0.136719 L 29.683594 0.136719 L 29.683594 28.964844 L 0.855469 28.964844 Z M 0.855469 0.136719 " fill-opacity="1" fill-rule="nonzero"/></g></g></g></g></g></g><g clip-path="url(#c56b7ce483)"><g clip-path="url(#cf0273a955)"><g transform="matrix(1, 0, 0, 1, 437, 494)"><g clip-path="url(#cdbf82b09c)"><g clip-path="url(#ea89eb08a6)"><g clip-path="url(#0fe801f11e)"><path fill="#000000" d="M 0.136719 0.875 L 16.777344 0.875 L 16.777344 17.515625 L 0.136719 17.515625 Z M 0.136719 0.875 " fill-opacity="1" fill-rule="nonzero"/></g></g></g></g></g></g><g clip-path="url(#d5c4b367f4)"><g clip-path="url(#2f4a1b6ad2)"><g transform="matrix(1, 0, 0, 1, 437, 181)"><g clip-path="url(#af9a2cf3a5)"><g clip-path="url(#7a6179cd53)"><g clip-path="url(#afc9482ed5)"><path fill="#000000" d="M 0.136719 0.0429688 L 16.777344 0.0429688 L 16.777344 16.683594 L 0.136719 16.683594 Z M 0.136719 0.0429688 " fill-opacity="1" fill-rule="nonzero"/></g></g></g></g></g></g><g clip-path="url(#5d9b0b4734)"><g clip-path="url(#523ea1e330)"><g transform="matrix(1, 0, 0, 1, 279, 98)"><g clip-path="url(#5d4c41fd7d)"><g clip-path="url(#41078cc0c2)"><g clip-path="url(#9e60db1c8a)"><path fill="#000000" d="M 0.289062 0.328125 L 16.929688 0.328125 L 16.929688 16.96875 L 0.289062 16.96875 Z M 0.289062 0.328125 " fill-opacity="1" fill-rule="nonzero"/></g></g></g></g></g></g><g clip-path="url(#b464277cf2)"><g clip-path="url(#d1bb777e8c)"><g transform="matrix(1, 0, 0, 1, 279, 229)"><g clip-path="url(#b667f67112)"><g clip-path="url(#1c28b513d1)"><g clip-path="url(#6fd39eb544)"><path fill="#000000" d="M 0.539062 0.957031 L 17.179688 0.957031 L 17.179688 17.597656 L 0.539062 17.597656 Z M 0.539062 0.957031 " fill-opacity="1" fill-rule="nonzero"/></g></g></g></g></g></g><g clip-path="url(#ff059b2305)"><g clip-path="url(#2832265d26)"><g transform="matrix(1, 0, 0, 1, 47, 238)"><g clip-path="url(#437bfcf4d6)"><g clip-path="url(#c7641858e1)"><g clip-path="url(#c418ba6434)"><path fill="#000000" d="M 0.648438 0.277344 L 17.289062 0.277344 L 17.289062 16.921875 L 0.648438 16.921875 Z M 0.648438 0.277344 " fill-opacity="1" fill-rule="nonzero"/></g></g></g></g></g></g><g clip-path="url(#20312efdb7)"><g clip-path="url(#2e4f50c34c)"><g transform="matrix(1, 0, 0, 1, 157, 164)"><g clip-path="url(#cf025d5643)"><g clip-path="url(#eb8a0d7015)"><g clip-path="url(#04cc3643cb)"><path fill="#000000" d="M 0.855469 0 L 17.5 0 L 17.5 16.640625 L 0.855469 16.640625 Z M 0.855469 0 " fill-opacity="1" fill-rule="nonzero"/></g></g></g></g></g></g><path stroke-linecap="butt" transform="matrix(0.522724, -0.0572988, 0.0572988, 0.522724, 103.859374, 340.68903)" fill="none" stroke-linejoin="miter" d="M 0.580007 27.568321 C 214.834622 -3.856707 466.132489 -3.855524 754.466225 27.571061 " stroke="#000000" stroke-width="8" stroke-opacity="1" stroke-miterlimit="4"/><path stroke-linecap="butt" transform="matrix(0.468653, -0.238511, 0.238511, 0.468653, 364.316137, 384.919076)" fill="none" stroke-linejoin="miter" d="M -0.000483663 3.99822 C 96.893582 4.000247 193.787647 4.002274 290.685082 3.997681 " stroke="#000000" stroke-width="8" stroke-opacity="1" stroke-miterlimit="4"/><path stroke-linecap="butt" transform="matrix(0.158545, -0.501385, 0.501385, 0.158545, 494.427648, 372.302788)" fill="none" stroke-linejoin="miter" d="M 1.030433 3.861958 C 44.176115 15.391182 76.561866 15.387642 98.192166 3.865502 " stroke="#000000" stroke-width="8" stroke-opacity="1" stroke-miterlimit="4"/><path stroke-linecap="butt" transform="matrix(-0.391792, -0.350745, 0.350745, -0.391792, 402.624319, 428.312673)" fill="none" stroke-linejoin="miter" d="M -0.000808073 3.999222 C 25.403033 3.99891 58.376835 4.001462 98.921178 3.996387 " stroke="#000000" stroke-width="8" stroke-opacity="1" stroke-miterlimit="4"/><path stroke-linecap="butt" transform="matrix(0.425386, -0.309144, 0.309144, 0.425386, 419.490819, 429.111417)" fill="none" stroke-linejoin="miter" d="M 1.219254 3.810608 C 48.189221 18.872738 95.158297 18.874356 142.130849 3.809452 " stroke="#000000" stroke-width="8" stroke-opacity="1" stroke-miterlimit="4"/><path stroke-linecap="butt" transform="matrix(-0.522754, -0.0570243, 0.0570243, -0.522754, 362.031686, 386.137592)" fill="none" stroke-linejoin="miter" d="M 1.985012 3.872567 C 104.827846 62.573725 269.004494 62.568585 494.523953 3.871111 " stroke="#000000" stroke-width="8" stroke-opacity="1" stroke-miterlimit="4"/><path stroke-linecap="butt" transform="matrix(0.524803, -0.0332324, 0.0332324, 0.524803, 370.632779, 386.508608)" fill="none" stroke-linejoin="miter" d="M 1.45394 3.722864 C 82.609428 35.434357 151.266035 35.435066 207.416346 3.724522 " stroke="#000000" stroke-width="8" stroke-opacity="1" stroke-miterlimit="4"/><path stroke-linecap="butt" transform="matrix(-0.156769, -0.501943, 0.501943, -0.156769, 76.753847, 353.378883)" fill="none" stroke-linejoin="miter" d="M 1.276834 20.679472 C 67.118584 -1.55903 132.955934 -1.557207 198.791097 20.677849 " stroke="#000000" stroke-width="8" stroke-opacity="1" stroke-miterlimit="4"/><path stroke-linecap="butt" transform="matrix(0.178861, -0.494502, 0.494502, 0.178861, 82.390448, 358.839351)" fill="none" stroke-linejoin="miter" d="M 0.951124 27.114539 C 126.762444 -3.706416 252.583201 -3.70745 378.399426 27.116488 " stroke="#000000" stroke-width="8" stroke-opacity="1" stroke-miterlimit="4"/><path stroke-linecap="butt" transform="matrix(-0.438217, 0.29067, -0.29067, -0.438217, 165.003297, 175.887965)" fill="none" stroke-linejoin="miter" d="M 0.874341 3.961185 C 62.226188 17.700074 141.328149 17.700866 238.18433 3.95737 " stroke="#000000" stroke-width="8" stroke-opacity="1" stroke-miterlimit="4"/><path stroke-linecap="butt" transform="matrix(-0.461648, 0.251801, -0.251801, -0.461648, 286.830125, 114.826013)" fill="none" stroke-linejoin="miter" d="M 0.351029 11.728414 C 116.852966 1.420972 198.132642 1.424183 244.193616 11.731527 " stroke="#000000" stroke-width="8" stroke-opacity="1" stroke-miterlimit="4"/><path stroke-linecap="butt" transform="matrix(-0.00382944, -0.525841, 0.525841, -0.00382944, 272.035909, 234.237052)" fill="none" stroke-linejoin="miter" d="M 1.486475 27.116287 C 78.633911 -3.707642 155.779694 -3.70297 232.923933 27.115446 " stroke="#000000" stroke-width="8" stroke-opacity="1" stroke-miterlimit="4"/><path stroke-linecap="butt" transform="matrix(-0.497181, -0.171271, 0.171271, -0.497181, 492.916752, 323.401883)" fill="none" stroke-linejoin="miter" d="M 0.781641 24.376561 C 137.636148 -2.795569 274.83996 -2.793542 412.390657 24.375618 " stroke="#000000" stroke-width="8" stroke-opacity="1" stroke-miterlimit="4"/><path stroke-linecap="butt" transform="matrix(-0.451233, 0.270022, -0.270022, -0.451233, 291.425751, 254.438948)" fill="none" stroke-linejoin="miter" d="M 0.869803 27.117514 C 139.566511 -3.70513 278.257246 -3.704347 416.952196 27.117301 " stroke="#000000" stroke-width="8" stroke-opacity="1" stroke-miterlimit="4"/><path stroke-linecap="butt" transform="matrix(-0.502891, 0.153699, -0.153699, -0.502891, 444.300458, 206.654955)" fill="none" stroke-linejoin="miter" d="M 1.203602 27.116839 C 98.948918 -3.705072 196.703162 -3.702484 294.454298 27.113157 " stroke="#000000" stroke-width="8" stroke-opacity="1" stroke-miterlimit="4"/><path stroke-linecap="butt" transform="matrix(-0.252008, -0.461536, 0.461536, -0.252008, 507.226295, 302.532344)" fill="none" stroke-linejoin="miter" d="M 1.39196 3.748266 C 77.529407 32.007609 153.667904 32.007586 229.807451 3.7482 " stroke="#000000" stroke-width="8" stroke-opacity="1" stroke-miterlimit="4"/><g clip-path="url(#8139e9d44b)"><g clip-path="url(#913f3027f6)"><g transform="matrix(1, 0, 0, 1, 392, 91)"><g clip-path="url(#a9480318b5)"><g clip-path="url(#35753303b2)"><g clip-path="url(#c7ceb535b1)"><path fill="#000000" d="M 0.53125 0.398438 L 17.171875 0.398438 L 17.171875 17.042969 L 0.53125 17.042969 Z M 0.53125 0.398438 " fill-opacity="1" fill-rule="nonzero"/></g></g></g></g></g></g><path stroke-linecap="butt" transform="matrix(-0.332912, 0.407054, -0.407054, -0.332912, 435.111459, 129.321259)" fill="none" stroke-linejoin="miter" d="M 2.82886 79.683125 C 103.933444 -21.229488 213.746256 -21.227957 332.273049 79.683015 " stroke="#000000" stroke-width="8" stroke-opacity="1" stroke-miterlimit="4"/><path stroke-linecap="butt" transform="matrix(-0.233686, -0.471077, 0.471077, -0.233686, 441.517322, 184.191549)" fill="none" stroke-linejoin="miter" d="M 0.927699 3.9476 C 45.689923 14.610009 101.511027 14.613529 168.394311 3.951505 " stroke="#000000" stroke-width="8" stroke-opacity="1" stroke-miterlimit="4"/><path stroke-linecap="butt" transform="matrix(-0.203446, 0.484905, -0.484905, -0.203446, 457.364306, 201.271508)" fill="none" stroke-linejoin="miter" d="M 0.931406 27.113494 C 129.974421 -3.70622 259.018991 -3.705478 388.065117 27.115719 " stroke="#000000" stroke-width="8" stroke-opacity="1" stroke-miterlimit="4"/><path stroke-linecap="butt" transform="matrix(0.241715, 0.467009, -0.467009, 0.241715, 412.016836, 443.956904)" fill="none" stroke-linejoin="miter" d="M 1.569185 3.6754 C 41.360271 20.657074 81.155901 20.661356 120.946295 3.674818 " stroke="#000000" stroke-width="8" stroke-opacity="1" stroke-miterlimit="4"/><path stroke-linecap="butt" transform="matrix(0.175477, -0.495713, 0.495713, 0.175477, 445.811258, 497.258045)" fill="none" stroke-linejoin="miter" d="M -0.00248884 3.998582 C 72.89666 4.00031 145.795809 4.002037 218.694958 4.003764 " stroke="#000000" stroke-width="8" stroke-opacity="1" stroke-miterlimit="4"/><g clip-path="url(#122d2142d6)"><g clip-path="url(#0d30ba20ba)"><g transform="matrix(1, 0, 0, 1, 79, 343)"><g clip-path="url(#cb9e5add44)"><g clip-path="url(#ea37f9573a)"><g clip-path="url(#75e3648239)"><path fill="#000000" d="M 0.503906 0.554688 L 29.03125 0.554688 L 29.03125 29.414062 L 0.503906 29.414062 Z M 0.503906 0.554688 " fill-opacity="1" fill-rule="nonzero"/></g></g></g></g></g></g></g></g></svg>